<?xml version="1.0" encoding="utf-8"?>
<!-- Generator: Adobe Illustrator 25.2.0, SVG Export Plug-In . SVG Version: 6.00 Build 0)  -->
<svg version="1.1" id="Warstwa_1" xmlns="http://www.w3.org/2000/svg" xmlns:xlink="http://www.w3.org/1999/xlink" x="0px" y="0px"
	 viewBox="0 0 430 430" style="enable-background:new 0 0 430 430;" xml:space="preserve">
<style type="text/css">
	.st0{fill:#121331;}
	.st1{fill:#F24C00;}
	.st2{opacity:0.5;fill:#F24C00;}
	.st3{fill:#92140C;}
	.st4{fill:#4bb3fd;}
	.st5{fill:#3A3347;}
	.st6{fill:#EBE6EF;}
	.st7{fill:#646E78;}
	.st8{opacity:0.5;fill:#EBE6EF;}
	.st9{opacity:0.5;fill:#3A3347;}
	.st10{fill:#FFC738;}
	.st11{fill:#B26836;}
	.st12{fill:#F28BA8;}
	.st13{opacity:0.5;fill:#F28BA8;}
	.st14{opacity:0.5;fill:#B26836;}
	.st15{opacity:0.5;fill:#646E78;}
	.st16{opacity:0.5;fill:#4bb3fd;}
	.st17{fill:#2CA58D;}
	.st18{opacity:0.5;fill:#2CA58D;}
	.st19{opacity:0.5;fill:#FFC738;}
	.st20{fill:#F9C9C0;}
	.st21{fill:none;stroke:#121331;stroke-width:7;stroke-linecap:round;stroke-linejoin:round;stroke-miterlimit:10;}
	.st22{opacity:0.5;}
	.st23{opacity:0.2;fill:#2CA58D;}
	.st24{fill:none;stroke:#F24C00;stroke-width:10;stroke-linecap:round;stroke-linejoin:round;stroke-miterlimit:10;}
	.st25{fill:none;stroke:#2CA58D;stroke-width:10;stroke-linecap:round;stroke-linejoin:round;stroke-miterlimit:10;}
	.st26{fill:none;stroke:#121331;stroke-width:10;stroke-linecap:round;stroke-linejoin:round;stroke-miterlimit:10;}
	.st27{fill:none;stroke:#EBE6EF;stroke-width:7;stroke-linecap:round;stroke-linejoin:round;stroke-miterlimit:10;}
</style>
<path class="st4" d="M331.51,169.75c-4.15-57.66-51.05-104.22-108.74-107.94C154.72,57.43,98.2,111.3,98.2,178.36
	c0,12.94,2.2,25.34,5.97,37.01c23.42,72.44,110.86,153.06,110.86,153.06s92.89-92.73,111.64-155.68
	C330.69,199.26,332.6,184.8,331.51,169.75z M215.02,233.33c-30.36,0-54.97-24.61-54.97-54.96c0-30.36,24.61-54.97,54.97-54.97
	c30.35,0,54.96,24.61,54.96,54.97C269.98,208.72,245.37,233.33,215.02,233.33z"/>
<path class="st16" d="M123.47,178.36c0-60.29,45.68-109.91,104.35-116.14c-1.59-0.17-3.18-0.31-4.78-0.41
	C154.99,57.43,98.47,111.3,98.47,178.36c0,12.94,2.2,25.34,5.97,37.01c23.42,72.44,110.86,153.06,110.86,153.06s0.68-0.5,3.66-3.65
	c-25.21-25.45-71.69-94.26-89.52-149.41C125.67,203.7,123.47,191.3,123.47,178.36z"/>
<g>
	<path class="st0" d="M214.59,371.93c-0.85,0-1.7-0.31-2.37-0.93c-3.6-3.32-88.38-82.08-111.81-154.56v0
		c-4.08-12.62-6.15-25.44-6.15-38.08c0-33.11,13.86-65.1,38.03-87.76c24.51-22.99,56.57-34.45,90.27-32.28
		c59.57,3.83,107.72,51.63,112.01,111.17c1.06,14.71-0.61,29.6-4.98,44.25C310.8,276.83,220.88,367.1,217.06,370.91
		C216.38,371.59,215.48,371.93,214.59,371.93z M107.06,214.29c20.68,63.98,93.12,135.54,107.43,149.24
		c14.61-14.98,91.76-95.99,108.38-151.78c4.12-13.84,5.7-27.89,4.7-41.75C323.54,113.93,278.2,68.92,222.1,65.31
		c-31.75-2.04-61.95,8.75-85.03,30.4c-23.09,21.66-35.81,51.01-35.81,82.65C101.26,190.28,103.21,202.37,107.06,214.29
		L107.06,214.29z"/>
	<path class="st0" d="M214.58,236.83c-32.24,0-58.46-26.23-58.46-58.46c0-32.24,26.23-58.46,58.46-58.46s58.46,26.23,58.46,58.46
		C273.04,210.61,246.81,236.83,214.58,236.83z M214.58,126.91c-28.38,0-51.46,23.09-51.46,51.46c0,28.38,23.09,51.46,51.46,51.46
		s51.46-23.08,51.46-51.46C266.04,149.99,242.95,126.91,214.58,126.91z"/>
</g>
</svg>
