<svg data-v-fde0c5aa="" xmlns="http://www.w3.org/2000/svg" viewBox="0 0 300 300" class="iconLeft"><!----><defs data-v-fde0c5aa=""><!----></defs><rect data-v-fde0c5aa="" fill="#FFFFFF" x="0" y="0" width="300px" height="300px" class="logo-background-square"></rect><defs data-v-fde0c5aa=""><!----></defs><g data-v-fde0c5aa="" id="c9d0a075-886f-49ef-b3d7-c048f391d47c" fill="#00C585" transform="matrix(3.246565101897117,0,0,3.246565101897117,122.31317849089217,128.29671228607737)"><path d="M1.26 5.42L0.22 5.42L0.22 7.31L1.26 7.31L1.26 10.07C1.26 11.34 1.74 12.81 3.71 12.81C4.73 12.81 5.53 12.36 5.53 12.36L4.91 10.36C4.91 10.36 4.62 10.58 4.30 10.58C3.91 10.58 3.74 10.26 3.74 9.59L3.74 7.31L5.25 7.31L5.25 5.42L3.74 5.42L3.74 2.74L1.26 2.74ZM6.37 12.60L8.85 12.60L8.85 8.82C8.85 8.64 9.03 7.36 10.32 7.36C11.14 7.36 11.61 7.76 11.61 7.76L12.64 5.66C12.64 5.66 12.00 5.21 11.07 5.21C9.66 5.21 8.88 6.45 8.88 6.45L8.85 6.45L8.85 5.42L6.37 5.42ZM12.71 9.02C12.71 11.12 14.18 12.81 16.28 12.81C17.26 12.81 18.10 12.38 18.63 11.79L18.66 11.79L18.66 12.60L21.11 12.60L21.11 5.42L18.63 5.42L18.63 6.10C18.05 5.53 17.25 5.21 16.28 5.21C14.18 5.21 12.71 6.92 12.71 9.02ZM15.34 9.02C15.34 8.02 16.09 7.32 17.02 7.32C17.95 7.32 18.69 8.02 18.69 9.02C18.69 10.00 17.99 10.70 17.02 10.70C16.02 10.70 15.34 10.00 15.34 9.02ZM24.56 5.42L21.62 5.42L25.47 12.60L27.15 12.60L31.00 5.42L28.06 5.42L26.31 9.32ZM38.78 9.35C38.79 9.27 38.79 9.11 38.79 9.02C38.79 6.50 37.13 5.21 34.94 5.21C32.77 5.21 31.00 6.92 31.00 9.02C31.00 11.10 32.77 12.81 34.94 12.81C36.54 12.81 37.86 12.29 38.67 10.93L36.88 10.04C36.27 10.68 35.92 10.84 35.13 10.84C34.50 10.84 33.57 10.46 33.57 9.35ZM33.64 7.98C33.68 7.32 34.16 6.82 35.01 6.82C35.74 6.82 36.26 7.22 36.37 7.98ZM39.93 12.60L42.41 12.60L42.41 0.56L39.93 0.56Z"></path></g><defs data-v-fde0c5aa=""><!----></defs><g data-v-fde0c5aa="" id="6bafb21f-497f-4b72-a340-84f5a64bcb54" stroke="none" fill="#56D468" transform="matrix(0.7152954210212986,0,0,0.7152954210212986,39.284704578978705,114.23523099541168)"><path d="M30.8 90.9l7.7-2.5-7.7-2.4 1.1-3.6 9.2 2.9-4.2-5.3 4.7-6.9-1.1-1.7 1.9-2.8 1.1 1.7 1.4-2 2.4 3.5.9-1.4 2.3 3.4-.9 1.4 3.2 4.8-4.1 5.3 9-2.9 1.1 3.6-7.8 2.5 7.7 2.5-.2.7H78L44.8 8.3 11.6 91.7H31l-.2-.8zM46.4 65l1.3 1.9-1.3 1.9-1.3-1.9 1.3-1.9z"></path><path d="M44.8 90.5l-3.9 1.2H48.6zM90 57.4l-9 22.5h17.9zM6.9 30.2L1 45.1h11.8zM31.5 39l-6.8-17L2.3 78h13.6zM70.7 70.5h11.4L61.9 19.6 56.2 34z"></path></g><!----></svg>